{
    "asset" : {
        "generator" : "Khronos glTF Blender I/O v1.7.33",
        "version" : "2.0"
    },
    "scene" : 0,
    "scenes" : [
        {
            "name" : "Scene",
            "nodes" : [
                0,
                1
            ]
        }
    ],
    "nodes" : [
        {
            "mesh" : 0,
            "name" : "Cube"
        },
        {
            "mesh" : 1,
            "name" : "Dvere.003",
            "rotation" : [
                0.7071068286895752,
                0,
                0,
                0.7071067094802856
            ]
        }
    ],
    "materials" : [
        {
            "doubleSided" : true,
            "name" : "Material",
            "pbrMetallicRoughness" : {
                "baseColorFactor" : [
                    0.800000011920929,
                    0.800000011920929,
                    0.800000011920929,
                    1
                ],
                "metallicFactor" : 0,
                "roughnessFactor" : 0.4000000059604645
            }
        },
        {
            "doubleSided" : true,
            "name" : "Mahogany.003",
            "pbrMetallicRoughness" : {
                "baseColorFactor" : [
                    0,
                    0,
                    0,
                    1
                ],
                "metallicFactor" : 0
            }
        },
        {
            "doubleSided" : true,
            "name" : "Coating_-_Black_Oxide.003",
            "pbrMetallicRoughness" : {
                "baseColorFactor" : [
                    0.17254899442195892,
                    0.17254899442195892,
                    0.17254899442195892,
                    1
                ],
                "metallicFactor" : 0
            }
        },
        {
            "doubleSided" : true,
            "name" : "Iron_-_Polished.003",
            "pbrMetallicRoughness" : {
                "baseColorFactor" : [
                    0.749019980430603,
                    0.7411760091781616,
                    0.7333329916000366,
                    1
                ],
                "metallicFactor" : 0
            }
        }
    ],
    "meshes" : [
        {
            "name" : "Cube",
            "primitives" : [
                {
                    "attributes" : {
                        "POSITION" : 0,
                        "NORMAL" : 1,
                        "TEXCOORD_0" : 2
                    },
                    "indices" : 3,
                    "material" : 0
                }
            ]
        },
        {
            "name" : "Dvere.003",
            "primitives" : [
                {
                    "attributes" : {
                        "POSITION" : 4,
                        "NORMAL" : 5,
                        "TEXCOORD_0" : 6
                    },
                    "indices" : 7,
                    "material" : 1
                },
                {
                    "attributes" : {
                        "POSITION" : 8,
                        "NORMAL" : 9,
                        "TEXCOORD_0" : 10
                    },
                    "indices" : 11,
                    "material" : 2
                },
                {
                    "attributes" : {
                        "POSITION" : 12,
                        "NORMAL" : 13,
                        "TEXCOORD_0" : 14
                    },
                    "indices" : 15,
                    "material" : 3
                }
            ]
        }
    ],
    "accessors" : [
        {
            "bufferView" : 0,
            "componentType" : 5126,
            "count" : 24,
            "max" : [
                1,
                1,
                1
            ],
            "min" : [
                -1,
                -1,
                -1
            ],
            "type" : "VEC3"
        },
        {
            "bufferView" : 1,
            "componentType" : 5126,
            "count" : 24,
            "type" : "VEC3"
        },
        {
            "bufferView" : 2,
            "componentType" : 5126,
            "count" : 24,
            "type" : "VEC2"
        },
        {
            "bufferView" : 3,
            "componentType" : 5123,
            "count" : 36,
            "type" : "SCALAR"
        },
        {
            "bufferView" : 4,
            "componentType" : 5126,
            "count" : 18946,
            "max" : [
                58.124916076660156,
                4.699999809265137,
                27.741985321044922
            ],
            "min" : [
                -0.9686499834060669,
                0,
                -28.065858840942383
            ],
            "type" : "VEC3"
        },
        {
            "bufferView" : 5,
            "componentType" : 5126,
            "count" : 18946,
            "type" : "VEC3"
        },
        {
            "bufferView" : 6,
            "componentType" : 5126,
            "count" : 18946,
            "type" : "VEC2"
        },
        {
            "bufferView" : 7,
            "componentType" : 5123,
            "count" : 55041,
            "type" : "SCALAR"
        },
        {
            "bufferView" : 8,
            "componentType" : 5126,
            "count" : 1252,
            "max" : [
                54.927406311035156,
                2.5,
                24.84269905090332
            ],
            "min" : [
                1.2750190496444702,
                2.5,
                -26.255239486694336
            ],
            "type" : "VEC3"
        },
        {
            "bufferView" : 9,
            "componentType" : 5126,
            "count" : 1252,
            "type" : "VEC3"
        },
        {
            "bufferView" : 10,
            "componentType" : 5126,
            "count" : 1252,
            "type" : "VEC2"
        },
        {
            "bufferView" : 11,
            "componentType" : 5123,
            "count" : 3648,
            "type" : "SCALAR"
        },
        {
            "bufferView" : 12,
            "componentType" : 5126,
            "count" : 989,
            "max" : [
                25.298791885375977,
                2.799999952316284,
                17.494340896606445
            ],
            "min" : [
                -0.6500189900398254,
                2.799999952316284,
                -15.663680076599121
            ],
            "type" : "VEC3"
        },
        {
            "bufferView" : 13,
            "componentType" : 5126,
            "count" : 989,
            "type" : "VEC3"
        },
        {
            "bufferView" : 14,
            "componentType" : 5126,
            "count" : 989,
            "type" : "VEC2"
        },
        {
            "bufferView" : 15,
            "componentType" : 5123,
            "count" : 2979,
            "type" : "SCALAR"
        }
    ],
    "bufferViews" : [
        {
            "buffer" : 0,
            "byteLength" : 288,
            "byteOffset" : 0
        },
        {
            "buffer" : 0,
            "byteLength" : 288,
            "byteOffset" : 288
        },
        {
            "buffer" : 0,
            "byteLength" : 192,
            "byteOffset" : 576
        },
        {
            "buffer" : 0,
            "byteLength" : 72,
            "byteOffset" : 768
        },
        {
            "buffer" : 0,
            "byteLength" : 227352,
            "byteOffset" : 840
        },
        {
            "buffer" : 0,
            "byteLength" : 227352,
            "byteOffset" : 228192
        },
        {
            "buffer" : 0,
            "byteLength" : 151568,
            "byteOffset" : 455544
        },
        {
            "buffer" : 0,
            "byteLength" : 110082,
            "byteOffset" : 607112
        },
        {
            "buffer" : 0,
            "byteLength" : 15024,
            "byteOffset" : 717196
        },
        {
            "buffer" : 0,
            "byteLength" : 15024,
            "byteOffset" : 732220
        },
        {
            "buffer" : 0,
            "byteLength" : 10016,
            "byteOffset" : 747244
        },
        {
            "buffer" : 0,
            "byteLength" : 7296,
            "byteOffset" : 757260
        },
        {
            "buffer" : 0,
            "byteLength" : 11868,
            "byteOffset" : 764556
        },
        {
            "buffer" : 0,
            "byteLength" : 11868,
            "byteOffset" : 776424
        },
        {
            "buffer" : 0,
            "byteLength" : 7912,
            "byteOffset" : 788292
        },
        {
            "buffer" : 0,
            "byteLength" : 5958,
            "byteOffset" : 796204
        }
    ],
    "buffers" : [
        {
            "byteLength" : 802164,
            "uri" : "dvere_test.bin"
        }
    ]
}
