{
    "asset" : {
        "generator" : "Khronos glTF Blender I/O v1.7.33",
        "version" : "2.0"
    },
    "scene" : 0,
    "scenes" : [
        {
            "name" : "Scene",
            "nodes" : [
                0,
                1,
                2,
                3,
                4
            ]
        }
    ],
    "nodes" : [
        {
            "mesh" : 0,
            "name" : "Dvere_H&O_dvere v4_Hrebiky_Dvere",
            "rotation" : [
                0.7071068286895752,
                0,
                0,
                0.7071067094802856
            ]
        },
        {
            "mesh" : 1,
            "name" : "Dvere_H&O_dvere v4_Klika_Dvere",
            "rotation" : [
                0.7071068286895752,
                0,
                0,
                0.7071067094802856
            ]
        },
        {
            "mesh" : 2,
            "name" : "Dvere_H&O_dvere v4_Panty_Dvere",
            "rotation" : [
                0.7071068286895752,
                0,
                0,
                0.7071067094802856
            ]
        },
        {
            "mesh" : 3,
            "name" : "Dvere_H&O_dvere v4_Dvere_Dvere.001",
            "rotation" : [
                0.7071068286895752,
                0,
                0,
                0.7071067094802856
            ]
        },
        {
            "mesh" : 4,
            "name" : "Dvere_H&O_dvere v4_Obruc_Dvere",
            "rotation" : [
                0.7071068286895752,
                0,
                0,
                0.7071067094802856
            ]
        }
    ],
    "materials" : [
        {
            "doubleSided" : true,
            "name" : "my_door_steel",
            "normalTexture" : {
                "index" : 0,
                "scale" : 2.5999999046325684
            },
            "pbrMetallicRoughness" : {
                "baseColorTexture" : {
                    "index" : 1
                },
                "metallicRoughnessTexture" : {
                    "index" : 2
                }
            }
        },
        {
            "doubleSided" : true,
            "name" : "gltf_my_door",
            "normalTexture" : {
                "index" : 3,
                "scale" : 3.3000001907348633
            },
            "pbrMetallicRoughness" : {
                "baseColorTexture" : {
                    "index" : 4
                },
                "metallicFactor" : 0,
                "metallicRoughnessTexture" : {
                    "index" : 5
                }
            }
        }
    ],
    "meshes" : [
        {
            "name" : "Dvere_H&O_dvere v4_Hrebiky_Dvere",
            "primitives" : [
                {
                    "attributes" : {
                        "POSITION" : 0,
                        "NORMAL" : 1,
                        "TEXCOORD_0" : 2
                    },
                    "indices" : 3,
                    "material" : 0
                }
            ]
        },
        {
            "name" : "Dvere_H&O_dvere v4_Klika_Dvere",
            "primitives" : [
                {
                    "attributes" : {
                        "POSITION" : 4,
                        "NORMAL" : 5,
                        "TEXCOORD_0" : 6
                    },
                    "indices" : 7,
                    "material" : 0
                }
            ]
        },
        {
            "name" : "Dvere_H&O_dvere v4_Panty_Dvere",
            "primitives" : [
                {
                    "attributes" : {
                        "POSITION" : 8,
                        "NORMAL" : 9,
                        "TEXCOORD_0" : 10
                    },
                    "indices" : 11,
                    "material" : 0
                }
            ]
        },
        {
            "name" : "Dvere_H&O_dvere v4_Dvere_Dvere.001",
            "primitives" : [
                {
                    "attributes" : {
                        "POSITION" : 12,
                        "NORMAL" : 13,
                        "TEXCOORD_0" : 14
                    },
                    "indices" : 15,
                    "material" : 1
                }
            ]
        },
        {
            "name" : "Dvere_H&O_dvere v4_Obruc_Dvere",
            "primitives" : [
                {
                    "attributes" : {
                        "POSITION" : 16,
                        "NORMAL" : 17,
                        "TEXCOORD_0" : 18
                    },
                    "indices" : 19,
                    "material" : 0
                }
            ]
        }
    ],
    "textures" : [
        {
            "sampler" : 0,
            "source" : 0
        },
        {
            "sampler" : 0,
            "source" : 1
        },
        {
            "sampler" : 0,
            "source" : 2
        },
        {
            "sampler" : 0,
            "source" : 3
        },
        {
            "sampler" : 0,
            "source" : 4
        },
        {
            "sampler" : 0,
            "source" : 5
        }
    ],
    "images" : [
        {
            "mimeType" : "image/jpeg",
            "name" : "Metal029_2K_NormalDX",
            "uri" : "textures/Metal029_2K_NormalDX.jpg"
        },
        {
            "mimeType" : "image/jpeg",
            "name" : "Metal029_2K_Color",
            "uri" : "textures/Metal029_2K_Color.jpg"
        },
        {
            "mimeType" : "image/png",
            "name" : "Metal029_2K_Metalness-Metal029_2K_Roughness",
            "uri" : "textures/Metal029_2K_Metalness-Metal029_2K_Roughness.png"
        },
        {
            "mimeType" : "image/jpeg",
            "name" : "Wood060_2K_NormalDX",
            "uri" : "textures/Wood060_2K_NormalDX.jpg"
        },
        {
            "mimeType" : "image/jpeg",
            "name" : "Wood060_2K_Color",
            "uri" : "textures/Wood060_2K_Color.jpg"
        },
        {
            "mimeType" : "image/png",
            "name" : "Wood060_2K_Roughness",
            "uri" : "textures/Wood060_2K_Roughness.png"
        }
    ],
    "accessors" : [
        {
            "bufferView" : 0,
            "componentType" : 5126,
            "count" : 13620,
            "max" : [
                5.492741107940674,
                0.25,
                2.484287977218628
            ],
            "min" : [
                0.12750199437141418,
                0,
                -2.6255290508270264
            ],
            "type" : "VEC3"
        },
        {
            "bufferView" : 1,
            "componentType" : 5126,
            "count" : 13620,
            "type" : "VEC3"
        },
        {
            "bufferView" : 2,
            "componentType" : 5126,
            "count" : 13620,
            "type" : "VEC2"
        },
        {
            "bufferView" : 3,
            "componentType" : 5123,
            "count" : 41520,
            "type" : "SCALAR"
        },
        {
            "bufferView" : 4,
            "componentType" : 5126,
            "count" : 978,
            "max" : [
                4.368895053863525,
                0.4699999988079071,
                0.43914398550987244
            ],
            "min" : [
                3.8626980781555176,
                0,
                -0.15380799770355225
            ],
            "type" : "VEC3"
        },
        {
            "bufferView" : 5,
            "componentType" : 5126,
            "count" : 978,
            "type" : "VEC3"
        },
        {
            "bufferView" : 6,
            "componentType" : 5126,
            "count" : 978,
            "type" : "VEC2"
        },
        {
            "bufferView" : 7,
            "componentType" : 5123,
            "count" : 3474,
            "type" : "SCALAR"
        },
        {
            "bufferView" : 8,
            "componentType" : 5126,
            "count" : 6496,
            "max" : [
                2.529879093170166,
                0.2800000011920929,
                1.7494369745254517
            ],
            "min" : [
                -0.06500200182199478,
                0,
                -1.5664340257644653
            ],
            "type" : "VEC3"
        },
        {
            "bufferView" : 9,
            "componentType" : 5126,
            "count" : 6496,
            "type" : "VEC3"
        },
        {
            "bufferView" : 10,
            "componentType" : 5126,
            "count" : 6496,
            "type" : "VEC2"
        },
        {
            "bufferView" : 11,
            "componentType" : 5123,
            "count" : 20388,
            "type" : "SCALAR"
        },
        {
            "bufferView" : 12,
            "componentType" : 5126,
            "count" : 2336,
            "max" : [
                5.812414169311523,
                0.2199999988079071,
                2.774198055267334
            ],
            "min" : [
                -0.09686499834060669,
                -0.009999999776482582,
                -2.8065860271453857
            ],
            "type" : "VEC3"
        },
        {
            "bufferView" : 13,
            "componentType" : 5126,
            "count" : 2336,
            "type" : "VEC3"
        },
        {
            "bufferView" : 14,
            "componentType" : 5126,
            "count" : 2336,
            "type" : "VEC2"
        },
        {
            "bufferView" : 15,
            "componentType" : 5123,
            "count" : 6864,
            "type" : "SCALAR"
        },
        {
            "bufferView" : 16,
            "componentType" : 5126,
            "count" : 77819,
            "max" : [
                5.8224968910217285,
                0.23499999940395355,
                2.7845458984375
            ],
            "min" : [
                -0.10680299997329712,
                -0.014999999664723873,
                -2.8165879249572754
            ],
            "type" : "VEC3"
        },
        {
            "bufferView" : 17,
            "componentType" : 5126,
            "count" : 77819,
            "type" : "VEC3"
        },
        {
            "bufferView" : 18,
            "componentType" : 5126,
            "count" : 77819,
            "type" : "VEC2"
        },
        {
            "bufferView" : 19,
            "componentType" : 5125,
            "count" : 422190,
            "type" : "SCALAR"
        }
    ],
    "bufferViews" : [
        {
            "buffer" : 0,
            "byteLength" : 163440,
            "byteOffset" : 0
        },
        {
            "buffer" : 0,
            "byteLength" : 163440,
            "byteOffset" : 163440
        },
        {
            "buffer" : 0,
            "byteLength" : 108960,
            "byteOffset" : 326880
        },
        {
            "buffer" : 0,
            "byteLength" : 83040,
            "byteOffset" : 435840
        },
        {
            "buffer" : 0,
            "byteLength" : 11736,
            "byteOffset" : 518880
        },
        {
            "buffer" : 0,
            "byteLength" : 11736,
            "byteOffset" : 530616
        },
        {
            "buffer" : 0,
            "byteLength" : 7824,
            "byteOffset" : 542352
        },
        {
            "buffer" : 0,
            "byteLength" : 6948,
            "byteOffset" : 550176
        },
        {
            "buffer" : 0,
            "byteLength" : 77952,
            "byteOffset" : 557124
        },
        {
            "buffer" : 0,
            "byteLength" : 77952,
            "byteOffset" : 635076
        },
        {
            "buffer" : 0,
            "byteLength" : 51968,
            "byteOffset" : 713028
        },
        {
            "buffer" : 0,
            "byteLength" : 40776,
            "byteOffset" : 764996
        },
        {
            "buffer" : 0,
            "byteLength" : 28032,
            "byteOffset" : 805772
        },
        {
            "buffer" : 0,
            "byteLength" : 28032,
            "byteOffset" : 833804
        },
        {
            "buffer" : 0,
            "byteLength" : 18688,
            "byteOffset" : 861836
        },
        {
            "buffer" : 0,
            "byteLength" : 13728,
            "byteOffset" : 880524
        },
        {
            "buffer" : 0,
            "byteLength" : 933828,
            "byteOffset" : 894252
        },
        {
            "buffer" : 0,
            "byteLength" : 933828,
            "byteOffset" : 1828080
        },
        {
            "buffer" : 0,
            "byteLength" : 622552,
            "byteOffset" : 2761908
        },
        {
            "buffer" : 0,
            "byteLength" : 1688760,
            "byteOffset" : 3384460
        }
    ],
    "samplers" : [
        {
            "magFilter" : 9729,
            "minFilter" : 9987
        }
    ],
    "buffers" : [
        {
            "byteLength" : 5073220,
            "uri" : "dvere.bin"
        }
    ]
}
